<svg xmlns="http://www.w3.org/2000/svg" viewBox="0 0 1101 492" role="img" aria-labelledby="logo-title logo-desc">
  <title id="logo-title">Luan César</title>
  <desc id="logo-desc">Engenheiro de Controle e Automação</desc>
  <defs>
    <linearGradient id="brand-green" x1="0" y1="0" x2="1" y2="1">
      <stop offset="0" stop-color="#071f18"/>
      <stop offset="0.52" stop-color="#31584d"/>
      <stop offset="0.76" stop-color="#0a261e"/>
      <stop offset="1" stop-color="#24483e"/>
    </linearGradient>
  </defs>
  <path d="M250 16 l146 85 l2 2 v48 l-148 -86 l-107 65 v90 l-30 1 l-11 -16 v-100 Z M510 85 l21 1 v103 l2 4 l8 5 h67 v19 h-68 l-16 -4 l-10 -9 l-5 -14 Z M203 121 l1 199 l94 55 v2 l-38 22 l-8 -2 l-87 -51 v-203 Z M624 124 l20 1 v63 l2 5 l7 5 h54 l1 -74 h19 l1 93 h-76 l-12 -3 l-8 -5 l-9 -16 Z M755 124 l71 1 l13 7 l7 15 l-1 70 l-81 -1 l-14 -9 l-5 -12 v-13 l4 -10 l9 -8 l10 -3 h57 v-11 l-7 -7 h-64 Z M866 124 h67 l19 5 l10 11 l3 9 v67 h-21 v-63 l-4 -7 l-6 -3 h-48 v73 l-20 1 Z M324 156 l82 47 l-1 3 l-30 21 l-5 1 l-47 -27 l-48 29 l-1 49 l44 27 l7 3 l45 -27 l37 24 l-81 48 l-91 -52 v-94 Z M773 179 l-7 5 v10 l5 4 h54 v-19 Z M30 190 l13 4 l4 8 h43 l19 27 h34 v8 h-39 l-18 -26 h-39 l-6 9 l-14 2 l-9 -7 l-2 -12 l5 -9 Z M31 198 l-5 2 l-2 9 l4 5 h8 l4 -5 v-6 l-2 -3 Z M45 235 l13 3 l5 9 h80 v8 h-80 l-5 9 l-6 3 h-8 l-10 -7 l-2 -12 l3 -7 Z M321 237 l12 2 l4 3 l4 9 h99 l2 -6 l6 -5 l11 -1 l9 6 l3 13 l-3 7 l-10 6 l-13 -3 l-5 -9 h-99 l-7 11 l-11 3 l-9 -3 l-7 -11 l3 -15 Z M539 237 h88 v18 l-83 1 l-8 4 l-5 8 v62 l7 9 l9 3 l79 -1 l1 19 h-88 l-12 -4 l-10 -8 l-8 -18 l1 -68 l4 -9 l8 -9 Z M702 237 l28 1 l-29 22 h-21 Z M46 243 l-5 3 l-1 9 l4 4 h7 l5 -5 v-6 l-3 -4 Z M455 246 l-8 5 v8 l4 4 h7 l5 -5 v-7 Z M102 264 h41 v99 l107 65 l7 -2 l140 -83 l1 47 l-148 86 l-148 -89 Z M666 269 h55 l15 9 l5 10 v35 h-76 v13 l8 6 h64 v18 h-70 l-11 -4 l-8 -8 l-4 -10 v-49 l9 -14 Z M780 269 h72 v18 h-66 l-6 6 v8 l5 4 h50 l14 6 l7 10 l1 18 l-4 10 l-6 6 l-12 5 h-74 v-18 h68 l7 -5 v-9 l-6 -5 h-49 l-9 -3 l-9 -8 l-4 -11 l2 -17 l9 -11 Z M883 269 h70 l15 9 l5 10 v72 h-78 l-11 -4 l-6 -6 l-5 -14 l1 -13 l3 -7 l9 -8 l10 -3 h57 l-1 -13 l-6 -5 h-63 Z M1017 269 h44 v17 l-36 1 l-7 4 l-2 4 v64 l-22 1 l1 -71 l8 -13 Z M673 287 l-8 6 v12 h56 l-1 -13 l-6 -5 Z M901 323 l-7 6 v6 l4 6 h55 v-18 Z M1067 380 l12 2 l6 8 l-2 12 l-8 6 l-12 -2 l-6 -10 h-548 v-4 h548 l2 -6 Z M1071 385 l-6 2 l-3 6 l2 7 l5 3 l8 -2 l3 -5 l-1 -7 Z M1048 420 h6 v2 l-7 1 Z M510 424 h9 v2 h-7 v4 l7 1 l-7 2 v4 h7 l1 2 h-10 Z M526 424 h3 l6 10 l1 -10 h2 v15 l-4 -1 l-5 -10 l-1 11 h-2 Z M549 424 h6 l2 4 l-7 -2 l-3 3 v6 l8 2 v-4 h-3 v-2 h5 v8 l-11 -1 l-2 -7 Z M564 424 h10 v2 h-7 v4 h6 v3 h-6 v4 h7 v2 h-10 Z M581 424 l4 2 l4 8 l1 -9 h3 v14 l-5 -2 l-4 -8 l-1 10 h-2 Z M600 424 h2 l1 7 h6 l1 -7 h2 v15 h-2 l-1 -7 h-6 l-1 7 h-2 Z M619 424 h10 v2 h-7 v5 l5 -1 l1 2 l-7 1 l1 4 h7 v2 h-10 Z M636 424 h2 v15 h-3 Z M645 424 l10 1 l1 6 l-3 3 l3 5 h-3 l-2 -6 h-3 v5 l-3 1 Z M666 424 h5 l5 5 v6 l-3 4 h-8 l-3 -4 v-7 Z M692 424 h8 l4 3 l-1 11 l-11 1 Z M711 424 h10 v2 h-7 v5 h6 v2 h-6 v4 h7 v2 h-10 Z M741 424 l8 2 v2 l-7 -2 l-3 3 l2 8 l8 -2 l-5 5 l-6 -2 l-2 -5 l1 -6 Z M759 424 l9 3 v9 l-3 3 l-10 -2 l-1 -7 Z M775 424 l4 2 l4 8 h2 v-10 h2 v15 l-4 -1 l-5 -9 l-1 10 h-2 Z M793 424 h11 v2 h-4 v13 h-3 v-13 h-4 Z M810 424 l10 1 l-1 10 l2 4 l-3 -1 l-2 -5 h-3 v6 h-3 Z M831 424 h6 l4 5 l-3 10 l-5 1 l-6 -4 v-8 Z M848 424 l2 1 v12 h7 v2 h-10 Z M863 424 h9 v2 h-7 v5 h6 v2 h-6 v4 h7 v2 h-10 Z M889 424 h9 v2 h-7 v5 h6 v2 h-6 v4 h7 v2 h-10 Z M919 424 l3 1 l5 14 h-3 l-2 -4 h-5 l-1 4 h-3 Z M932 424 h3 l1 13 l6 -1 v-12 h2 v13 l-2 2 l-9 -1 Z M950 424 l12 1 l-5 1 v13 h-2 l-1 -13 h-4 Z M971 424 h5 l4 4 v8 l-3 3 h-7 l-4 -5 l1 -7 Z M987 424 h3 l4 11 l5 -11 h3 v15 h-2 v-10 l-5 10 l-6 -9 v9 h-2 Z M1013 424 h3 l6 15 h-3 l-2 -4 h-5 l-4 4 Z M1031 424 l8 2 v2 l-7 -2 l-3 3 l2 8 l8 -2 v3 l-4 1 v5 h-4 l2 -3 l-5 -3 l-2 -6 Z M1050 424 l3 1 l5 14 h-3 l-1 -3 h-7 v3 h-3 Z M1067 424 h6 l4 5 l-1 8 l-3 2 h-7 l-3 -3 v-8 Z M649 426 l-1 5 h5 v-4 Z M668 426 l-3 2 l-1 6 l2 3 h5 l2 -9 Z M696 426 l-2 11 h6 l2 -8 Z M761 426 l-4 3 v6 l7 2 l2 -8 Z M814 426 l-1 5 h5 v-4 Z M833 426 l-3 2 l-1 6 l2 3 h5 l2 -9 Z M973 426 l-4 3 v6 l7 2 l2 -8 Z M1069 426 l-4 3 v5 l2 3 h5 l2 -9 Z M920 428 l-2 6 l4 -1 Z M1015 428 l-2 6 l4 -1 Z M1051 428 l-2 5 h4 Z" fill="url(#brand-green)" fill-rule="evenodd"/>
</svg>
