<svg xmlns="http://www.w3.org/2000/svg" viewBox="0 0 487 492" role="img" aria-labelledby="mark-title">
  <title id="mark-title">Monograma Luan César</title>
  <defs>
    <linearGradient id="brand-green" x1="0" y1="0" x2="1" y2="1">
      <stop offset="0" stop-color="#071f18"/>
      <stop offset="0.52" stop-color="#31584d"/>
      <stop offset="0.76" stop-color="#0a261e"/>
      <stop offset="1" stop-color="#24483e"/>
    </linearGradient>
  </defs>
  <path d="M250 16 l146 85 l2 2 v48 l-148 -86 l-107 65 v90 l-30 1 l-11 -16 v-100 Z M203 121 l1 199 l94 55 v2 l-38 22 l-8 -2 l-87 -51 v-203 Z M324 156 l82 47 l-1 3 l-30 21 l-5 1 l-47 -27 l-48 29 l-1 49 l44 27 l7 3 l45 -27 l37 24 l-81 48 l-91 -52 v-94 Z M30 190 l13 4 l4 8 h43 l19 27 h34 v8 h-39 l-18 -26 h-39 l-6 9 l-14 2 l-9 -7 l-2 -12 l5 -9 Z M31 198 l-5 2 l-2 9 l4 5 h8 l4 -5 v-6 l-2 -3 Z M45 235 l13 3 l5 9 h80 v8 h-80 l-5 9 l-6 3 h-8 l-10 -7 l-2 -12 l3 -7 Z M321 237 l12 2 l4 3 l4 9 h99 l2 -6 l6 -5 l11 -1 l9 6 l3 13 l-3 7 l-10 6 l-13 -3 l-5 -9 h-99 l-7 11 l-11 3 l-9 -3 l-7 -11 l3 -15 Z M46 243 l-5 3 l-1 9 l4 4 h7 l5 -5 v-6 l-3 -4 Z M455 246 l-8 5 v8 l4 4 h7 l5 -5 v-7 Z M102 264 h41 v99 l107 65 l7 -2 l140 -83 l1 47 l-148 86 l-148 -89 Z" fill="url(#brand-green)" fill-rule="evenodd"/>
</svg>
